<?xml version="1.0" encoding="UTF-8"?>
<svg id="Layer_1" data-name="Layer 1" xmlns="http://www.w3.org/2000/svg" viewBox="0 0 277.45 98.32">
  <rect x="5" width="267.45" height="97.41" style="fill: #2f6eb6;"/>
  <g>
    <g>
      <path d="m34.79,33.28c2.46,2.32,3.7,5.44,3.7,9.36,0,.92-.1,2.02-.3,3.3-.16.88-.44,1.96-.84,3.24H12.03c-.04.28-.06.7-.06,1.26,0,2.36.73,4.24,2.19,5.64,1.46,1.4,3.38,2.1,5.74,2.1,3.73,0,6.59-1.54,8.6-4.62h7.39c-1.52,3.04-3.77,5.53-6.73,7.47-2.97,1.94-6.39,2.91-10.28,2.91-2.77,0-5.19-.54-7.27-1.62-2.08-1.08-3.71-2.63-4.87-4.65-1.16-2.02-1.74-4.39-1.74-7.11,0-1.16.12-2.4.36-3.72.6-3.4,1.82-6.39,3.67-8.97,1.84-2.58,4.14-4.57,6.88-5.97,2.74-1.4,5.74-2.1,8.99-2.1,4.13,0,7.42,1.16,9.89,3.48Zm-3.34,9.42c0-2.2-.73-3.94-2.19-5.22-1.46-1.28-3.36-1.92-5.68-1.92-2.44,0-4.65.78-6.61,2.34-1.96,1.56-3.31,3.68-4.03,6.36h18.4c.08-.72.12-1.24.12-1.56Z" style="fill: #3ec2d4;"/>
      <path d="m46.09,37.9c1.82-2.56,4.06-4.55,6.7-5.97s5.41-2.13,8.3-2.13c2.6,0,4.79.51,6.55,1.53,1.76,1.02,3.09,2.29,3.97,3.81l.84-4.8h6.91l-5.83,33.06h-6.91l.9-4.92c-1.44,1.56-3.26,2.86-5.44,3.9-2.18,1.04-4.56,1.56-7.12,1.56s-4.7-.56-6.64-1.68c-1.94-1.12-3.47-2.71-4.57-4.77-1.1-2.06-1.65-4.43-1.65-7.11,0-1.2.12-2.42.36-3.66.6-3.32,1.81-6.26,3.64-8.82Zm23.72,6.48c0-2.68-.79-4.79-2.37-6.33-1.58-1.54-3.56-2.31-5.92-2.31-1.76,0-3.49.43-5.17,1.29-1.68.86-3.15,2.12-4.39,3.78-1.24,1.66-2.06,3.63-2.46,5.91-.16.76-.24,1.58-.24,2.46,0,2.72.79,4.87,2.37,6.45,1.58,1.58,3.56,2.37,5.92,2.37,1.76,0,3.49-.44,5.17-1.32s3.15-2.17,4.39-3.87c1.24-1.7,2.06-3.69,2.46-5.97.16-.76.24-1.58.24-2.46Z" style="fill: #3ec2d4;"/>
      <path d="m88.5,62.77c-1.88-.78-3.37-1.88-4.45-3.3-1.08-1.42-1.62-3.05-1.62-4.89,0-.32.04-.76.12-1.32h6.67c-.16,1.52.3,2.78,1.38,3.78,1.08,1,2.6,1.5,4.57,1.5s3.51-.34,4.75-1.02c1.24-.68,1.86-1.68,1.86-3,0-1.12-.51-2.02-1.53-2.7-1.02-.68-2.66-1.44-4.9-2.28-2.12-.84-3.85-1.62-5.17-2.34-1.32-.72-2.46-1.71-3.43-2.97s-1.44-2.83-1.44-4.71.55-3.61,1.65-5.07c1.1-1.46,2.65-2.6,4.63-3.42,1.98-.82,4.26-1.23,6.82-1.23,2.32,0,4.4.39,6.22,1.17,1.82.78,3.25,1.88,4.27,3.3s1.53,3.05,1.53,4.89c0,.56-.02.98-.06,1.26h-6.49c.16-1.56-.29-2.82-1.35-3.78-1.06-.96-2.58-1.44-4.54-1.44-1.72,0-3.12.36-4.18,1.08-1.06.72-1.59,1.7-1.59,2.94s.54,2.23,1.62,2.97c1.08.74,2.74,1.55,4.99,2.43,2.04.8,3.71,1.56,4.99,2.28,1.28.72,2.38,1.68,3.31,2.88.92,1.2,1.38,2.7,1.38,4.5,0,1.96-.59,3.67-1.77,5.13-1.18,1.46-2.82,2.58-4.9,3.36-2.08.78-4.45,1.17-7.09,1.17-2.28,0-4.37-.39-6.25-1.17Z" style="fill: #3ec2d4;"/>
      <path d="m124.21,30.34l4.87,25.2,14.13-25.2h7.09l-28.85,48.6h-7.09l9.56-16.08-7.33-32.52h7.63Z" style="fill: #3ec2d4;"/>
      <path d="m199.65,38.44c-1.56,1.6-3.49,2.78-5.77,3.54,1.84.32,3.37,1.26,4.57,2.82,1.2,1.56,1.8,3.4,1.8,5.52,0,.64-.06,1.26-.18,1.86-.36,2.12-1.24,4.03-2.65,5.73-1.4,1.7-3.24,3.04-5.5,4.02-2.26.98-4.78,1.47-7.54,1.47h-16.71l7.39-41.7h15.93c3.81,0,6.72.82,8.75,2.46,2.02,1.64,3.04,3.76,3.04,6.36,0,.6-.06,1.24-.18,1.92-.4,2.4-1.38,4.4-2.95,6Zm-6.19,11.64c0-1.64-.6-2.94-1.8-3.9s-2.81-1.44-4.81-1.44h-9.02l-2.34,13.32h9.26c2.32,0,4.25-.58,5.77-1.74,1.52-1.16,2.46-2.78,2.83-4.86.08-.64.12-1.1.12-1.38Zm2.17-18.06c0-1.56-.54-2.78-1.62-3.66-1.08-.88-2.61-1.32-4.57-1.32h-8.48l-2.16,12.36h8.48c2.24,0,4.1-.54,5.56-1.62s2.35-2.58,2.67-4.5c.08-.56.12-.98.12-1.26Z" style="fill: #3ec2d4;"/>
      <path d="m241.37,30.34l-5.83,33.06h-6.85l.66-3.9c-1.32,1.36-2.92,2.43-4.78,3.21-1.86.78-3.78,1.17-5.74,1.17-3.49,0-6.27-.94-8.36-2.82-2.08-1.88-3.13-4.54-3.13-7.98,0-.92.1-2.02.3-3.3l3.43-19.44h6.79l-3.25,18.42c-.16,1.12-.24,1.92-.24,2.4,0,2.2.61,3.88,1.83,5.04,1.22,1.16,2.92,1.74,5.08,1.74,2.53,0,4.67-.75,6.43-2.25,1.76-1.5,2.92-3.67,3.49-6.51l3.31-18.84h6.85Z" style="fill: #3ec2d4;"/>
      <path d="m250.51,62.77c-1.88-.78-3.37-1.88-4.45-3.3-1.08-1.42-1.62-3.05-1.62-4.89,0-.32.04-.76.12-1.32h6.67c-.16,1.52.3,2.78,1.38,3.78,1.08,1,2.61,1.5,4.57,1.5s3.51-.34,4.75-1.02c1.24-.68,1.86-1.68,1.86-3,0-1.12-.51-2.02-1.53-2.7-1.02-.68-2.66-1.44-4.9-2.28-2.12-.84-3.85-1.62-5.17-2.34-1.32-.72-2.46-1.71-3.43-2.97s-1.44-2.83-1.44-4.71.55-3.61,1.65-5.07c1.1-1.46,2.65-2.6,4.63-3.42,1.98-.82,4.26-1.23,6.82-1.23,2.32,0,4.4.39,6.22,1.17,1.82.78,3.25,1.88,4.27,3.3,1.02,1.42,1.53,3.05,1.53,4.89,0,.56-.02.98-.06,1.26h-6.49c.16-1.56-.29-2.82-1.35-3.78-1.06-.96-2.58-1.44-4.54-1.44-1.72,0-3.12.36-4.18,1.08-1.06.72-1.59,1.7-1.59,2.94s.54,2.23,1.62,2.97c1.08.74,2.75,1.55,4.99,2.43,2.04.8,3.71,1.56,4.99,2.28,1.28.72,2.38,1.68,3.31,2.88.92,1.2,1.38,2.7,1.38,4.5,0,1.96-.59,3.67-1.77,5.13-1.18,1.46-2.82,2.58-4.9,3.36-2.08.78-4.45,1.17-7.09,1.17-2.28,0-4.37-.39-6.25-1.17Z" style="fill: #3ec2d4;"/>
    </g>
    <g>
      <path d="m18.89,68.94c-3.56,0-6.78-.73-9.58-2.18-2.94-1.52-5.26-3.74-6.9-6.6-1.6-2.77-2.41-6-2.41-9.6,0-1.46.15-3.01.44-4.62.72-4.1,2.25-7.8,4.52-10.98,2.3-3.22,5.22-5.75,8.68-7.52,3.44-1.76,7.23-2.65,11.26-2.65,5.42,0,9.9,1.63,13.31,4.84,3.5,3.29,5.27,7.67,5.27,13,0,1.19-.12,2.52-.36,4.07l-.02.12c-.1.53-.22,1.1-.38,1.72h1.28l-3.63,7.24c-1.92,3.83-4.77,6.99-8.47,9.41-3.78,2.47-8.16,3.73-13.02,3.73Z" style="fill: #fff;"/>
      <path d="m54.96,68.94c-3.36,0-6.44-.79-9.14-2.35-2.76-1.59-4.94-3.86-6.48-6.75-1.49-2.78-2.24-5.97-2.24-9.47,0-1.51.15-3.07.45-4.61.72-3.97,2.23-7.62,4.47-10.77,2.27-3.18,5.09-5.69,8.41-7.47,3.37-1.81,6.95-2.72,10.66-2.72,2.6,0,4.96.41,7.04,1.23l.12-.69h17.07l-7.59,43.06h-17.11l.03-.19c-1.82.49-3.73.73-5.7.73Zm6.55-28.2c-.97,0-1.92.24-2.9.74-1,.51-1.87,1.27-2.66,2.32-.77,1.03-1.28,2.27-1.54,3.78l-.03.17c-.09.42-.13.9-.13,1.43,0,1.8.52,2.52.91,2.91.45.45,1.09.91,2.39.91.95,0,1.89-.25,2.85-.75,1-.53,1.88-1.31,2.67-2.39.79-1.08,1.31-2.36,1.58-3.89l.03-.16c.09-.42.13-.9.13-1.43,0-1.91-.63-2.52-.86-2.75-.45-.44-1.1-.89-2.43-.89Z" style="fill: #fff;"/>
      <path d="m94.75,68.94c-2.94,0-5.68-.52-8.17-1.55-2.7-1.12-4.89-2.76-6.51-4.89-1.76-2.3-2.65-4.97-2.65-7.92,0-.57.06-1.23.17-2.04l.62-4.28h5.39c-.28-.32-.56-.65-.82-1-1.64-2.15-2.47-4.75-2.47-7.74s.9-5.74,2.66-8.08c1.64-2.17,3.9-3.87,6.71-5.03,2.58-1.07,5.52-1.61,8.73-1.61,2.99,0,5.75.53,8.19,1.57,2.66,1.14,4.8,2.81,6.36,4.98,1.64,2.28,2.47,4.91,2.47,7.81,0,.81-.03,1.43-.11,1.96l-.61,4.3h-4.75c.39.42.77.85,1.12,1.31,1.61,2.09,2.42,4.63,2.42,7.55,0,3.13-.97,5.91-2.89,8.28-1.74,2.15-4.11,3.8-7.03,4.9-2.64.99-5.61,1.49-8.85,1.49Z" style="fill: #fff;"/>
      <polygon points="105.56 83.94 118.59 62.01 110.32 25.34 128.33 25.34 131.39 41.18 140.27 25.34 159.08 25.34 124.29 83.94 105.56 83.94" style="fill: #fff;"/>
      <path d="m161.7,68.4l9.17-51.7h20.12c4.96,0,8.96,1.2,11.89,3.57,3.2,2.59,4.89,6.14,4.89,10.25,0,.89-.09,1.83-.26,2.79-.56,3.37-2.01,6.29-4.29,8.62-.13.13-.26.26-.4.39,1.61,2.32,2.42,5,2.42,7.99,0,.94-.09,1.87-.26,2.77-.52,2.96-1.76,5.65-3.71,8-1.9,2.31-4.38,4.13-7.37,5.43-2.88,1.25-6.09,1.88-9.53,1.88h-22.68Zm23.04-15.34c1.21,0,2.11-.23,2.74-.72.35-.26.72-.67.91-1.64.04-.29.06-.51.07-.67h0c-.32-.19-.91-.3-1.61-.3h-4.82l-.58,3.32h3.3Zm2.52-18.66c1.14,0,2.01-.22,2.59-.64.27-.2.56-.47.71-1.25.02-.13.03-.24.04-.34-.21-.06-.59-.12-1.18-.12h-4.28l-.41,2.36h2.53Z" style="fill: #fff;"/>
      <path d="m218.83,68.88c-4.75,0-8.69-1.38-11.71-4.11-2.18-1.96-4.78-5.59-4.78-11.69,0-1.2.12-2.53.36-4.08l4.17-23.66h16.95l-4.27,24.21c-.17,1.22-.18,1.6-.18,1.62,0,.91.18,1.32.27,1.41.25.24.85.37,1.64.37,1.75,0,2.66-.6,3.19-1.06.88-.75,1.47-1.93,1.81-3.62l4.02-22.92h17.01l-7.6,43.06h-16.6c-1.42.32-2.86.48-4.31.48Z" style="fill: #fff;"/>
      <path d="m256.76,68.94c-2.94,0-5.68-.52-8.17-1.55-2.7-1.12-4.89-2.76-6.51-4.89-1.76-2.3-2.65-4.97-2.65-7.92,0-.57.05-1.22.17-2.04l.62-4.28h5.39c-.29-.32-.56-.65-.82-1-1.64-2.15-2.47-4.75-2.47-7.74s.9-5.74,2.66-8.08c1.64-2.17,3.9-3.87,6.71-5.03,2.59-1.07,5.52-1.61,8.73-1.61,2.99,0,5.75.53,8.19,1.57,2.66,1.14,4.8,2.81,6.36,4.97,1.64,2.28,2.47,4.91,2.47,7.81,0,.81-.03,1.43-.11,1.95l-.6,4.31h-4.75c.39.41.77.85,1.12,1.31,1.61,2.09,2.42,4.63,2.42,7.55,0,3.13-.97,5.91-2.89,8.28-1.74,2.15-4.11,3.8-7.03,4.9-2.64.99-5.61,1.49-8.85,1.49Z" style="fill: #fff;"/>
    </g>
    <g>
      <path d="m34.79,33.28c2.46,2.32,3.7,5.44,3.7,9.36,0,.92-.1,2.02-.3,3.3-.16.88-.44,1.96-.84,3.24H12.03c-.04.28-.06.7-.06,1.26,0,2.36.73,4.24,2.19,5.64,1.46,1.4,3.38,2.1,5.74,2.1,3.73,0,6.59-1.54,8.6-4.62h7.39c-1.52,3.04-3.77,5.53-6.73,7.47-2.97,1.94-6.39,2.91-10.28,2.91-2.77,0-5.19-.54-7.27-1.62-2.08-1.08-3.71-2.63-4.87-4.65-1.16-2.02-1.74-4.39-1.74-7.11,0-1.16.12-2.4.36-3.72.6-3.4,1.82-6.39,3.67-8.97,1.84-2.58,4.14-4.57,6.88-5.97,2.74-1.4,5.74-2.1,8.99-2.1,4.13,0,7.42,1.16,9.89,3.48Zm-3.34,9.42c0-2.2-.73-3.94-2.19-5.22-1.46-1.28-3.36-1.92-5.68-1.92-2.44,0-4.65.78-6.61,2.34-1.96,1.56-3.31,3.68-4.03,6.36h18.4c.08-.72.12-1.24.12-1.56Z" style="fill: #2f6eb6;"/>
      <path d="m46.09,37.9c1.82-2.56,4.06-4.55,6.7-5.97s5.41-2.13,8.3-2.13c2.6,0,4.79.51,6.55,1.53,1.76,1.02,3.09,2.29,3.97,3.81l.84-4.8h6.91l-5.83,33.06h-6.91l.9-4.92c-1.44,1.56-3.26,2.86-5.44,3.9-2.18,1.04-4.56,1.56-7.12,1.56s-4.7-.56-6.64-1.68c-1.94-1.12-3.47-2.71-4.57-4.77-1.1-2.06-1.65-4.43-1.65-7.11,0-1.2.12-2.42.36-3.66.6-3.32,1.81-6.26,3.64-8.82Zm23.72,6.48c0-2.68-.79-4.79-2.37-6.33-1.58-1.54-3.56-2.31-5.92-2.31-1.76,0-3.49.43-5.17,1.29-1.68.86-3.15,2.12-4.39,3.78-1.24,1.66-2.06,3.63-2.46,5.91-.16.76-.24,1.58-.24,2.46,0,2.72.79,4.87,2.37,6.45,1.58,1.58,3.56,2.37,5.92,2.37,1.76,0,3.49-.44,5.17-1.32s3.15-2.17,4.39-3.87c1.24-1.7,2.06-3.69,2.46-5.97.16-.76.24-1.58.24-2.46Z" style="fill: #2f6eb6;"/>
      <path d="m88.5,62.77c-1.88-.78-3.37-1.88-4.45-3.3-1.08-1.42-1.62-3.05-1.62-4.89,0-.32.04-.76.12-1.32h6.67c-.16,1.52.3,2.78,1.38,3.78,1.08,1,2.6,1.5,4.57,1.5s3.51-.34,4.75-1.02c1.24-.68,1.86-1.68,1.86-3,0-1.12-.51-2.02-1.53-2.7-1.02-.68-2.66-1.44-4.9-2.28-2.12-.84-3.85-1.62-5.17-2.34-1.32-.72-2.46-1.71-3.43-2.97s-1.44-2.83-1.44-4.71.55-3.61,1.65-5.07c1.1-1.46,2.65-2.6,4.63-3.42,1.98-.82,4.26-1.23,6.82-1.23,2.32,0,4.4.39,6.22,1.17,1.82.78,3.25,1.88,4.27,3.3s1.53,3.05,1.53,4.89c0,.56-.02.98-.06,1.26h-6.49c.16-1.56-.29-2.82-1.35-3.78-1.06-.96-2.58-1.44-4.54-1.44-1.72,0-3.12.36-4.18,1.08-1.06.72-1.59,1.7-1.59,2.94s.54,2.23,1.62,2.97c1.08.74,2.74,1.55,4.99,2.43,2.04.8,3.71,1.56,4.99,2.28,1.28.72,2.38,1.68,3.31,2.88.92,1.2,1.38,2.7,1.38,4.5,0,1.96-.59,3.67-1.77,5.13-1.18,1.46-2.82,2.58-4.9,3.36-2.08.78-4.45,1.17-7.09,1.17-2.28,0-4.37-.39-6.25-1.17Z" style="fill: #2f6eb6;"/>
      <path d="m124.21,30.34l4.87,25.2,14.13-25.2h7.09l-28.85,48.6h-7.09l9.56-16.08-7.33-32.52h7.63Z" style="fill: #2f6eb6;"/>
      <path d="m199.65,38.44c-1.56,1.6-3.49,2.78-5.77,3.54,1.84.32,3.37,1.26,4.57,2.82,1.2,1.56,1.8,3.4,1.8,5.52,0,.64-.06,1.26-.18,1.86-.36,2.12-1.24,4.03-2.65,5.73-1.4,1.7-3.24,3.04-5.5,4.02-2.26.98-4.78,1.47-7.54,1.47h-16.71l7.39-41.7h15.93c3.81,0,6.72.82,8.75,2.46,2.02,1.64,3.04,3.76,3.04,6.36,0,.6-.06,1.24-.18,1.92-.4,2.4-1.38,4.4-2.95,6Zm-6.19,11.64c0-1.64-.6-2.94-1.8-3.9s-2.81-1.44-4.81-1.44h-9.02l-2.34,13.32h9.26c2.32,0,4.25-.58,5.77-1.74,1.52-1.16,2.46-2.78,2.83-4.86.08-.64.12-1.1.12-1.38Zm2.17-18.06c0-1.56-.54-2.78-1.62-3.66-1.08-.88-2.61-1.32-4.57-1.32h-8.48l-2.16,12.36h8.48c2.24,0,4.1-.54,5.56-1.62s2.35-2.58,2.67-4.5c.08-.56.12-.98.12-1.26Z" style="fill: #2f6eb6;"/>
      <path d="m241.37,30.34l-5.83,33.06h-6.85l.66-3.9c-1.32,1.36-2.92,2.43-4.78,3.21-1.86.78-3.78,1.17-5.74,1.17-3.49,0-6.27-.94-8.36-2.82-2.08-1.88-3.13-4.54-3.13-7.98,0-.92.1-2.02.3-3.3l3.43-19.44h6.79l-3.25,18.42c-.16,1.12-.24,1.92-.24,2.4,0,2.2.61,3.88,1.83,5.04,1.22,1.16,2.92,1.74,5.08,1.74,2.53,0,4.67-.75,6.43-2.25,1.76-1.5,2.92-3.67,3.49-6.51l3.31-18.84h6.85Z" style="fill: #2f6eb6;"/>
      <path d="m250.51,62.77c-1.88-.78-3.37-1.88-4.45-3.3-1.08-1.42-1.62-3.05-1.62-4.89,0-.32.04-.76.12-1.32h6.67c-.16,1.52.3,2.78,1.38,3.78,1.08,1,2.61,1.5,4.57,1.5s3.51-.34,4.75-1.02c1.24-.68,1.86-1.68,1.86-3,0-1.12-.51-2.02-1.53-2.7-1.02-.68-2.66-1.44-4.9-2.28-2.12-.84-3.85-1.62-5.17-2.34-1.32-.72-2.46-1.71-3.43-2.97s-1.44-2.83-1.44-4.71.55-3.61,1.65-5.07c1.1-1.46,2.65-2.6,4.63-3.42,1.98-.82,4.26-1.23,6.82-1.23,2.32,0,4.4.39,6.22,1.17,1.82.78,3.25,1.88,4.27,3.3,1.02,1.42,1.53,3.05,1.53,4.89,0,.56-.02.98-.06,1.26h-6.49c.16-1.56-.29-2.82-1.35-3.78-1.06-.96-2.58-1.44-4.54-1.44-1.72,0-3.12.36-4.18,1.08-1.06.72-1.59,1.7-1.59,2.94s.54,2.23,1.62,2.97c1.08.74,2.75,1.55,4.99,2.43,2.04.8,3.71,1.56,4.99,2.28,1.28.72,2.38,1.68,3.31,2.88.92,1.2,1.38,2.7,1.38,4.5,0,1.96-.59,3.67-1.77,5.13-1.18,1.46-2.82,2.58-4.9,3.36-2.08.78-4.45,1.17-7.09,1.17-2.28,0-4.37-.39-6.25-1.17Z" style="fill: #2f6eb6;"/>
    </g>
  </g>
  <rect x="183.39" y="29.14" width="7.32" height="8.29" style="fill: #fff;"/>
  <rect x="78.46" y="45.62" width="7.32" height="4.22" style="fill: #fff;"/>
  <rect x="181.27" y="47.63" width="7.32" height="8.29" style="fill: #fff;"/>
  <rect x="202.06" y="40.41" width="3.57" height="5.31" style="fill: #fff;"/>
  <rect x="241.28" y="44.97" width="6.42" height="5.31" style="fill: #fff;"/>
  <polygon points="54.77 43.73 57.68 40.87 64.14 39.92 65.94 43.73 64.04 50.45 59.64 54.79 52.92 52.41 53.34 46.69 54.77 43.73" style="fill: #fff;"/>
</svg>